<svg width="230.69999389648436px" height="124.439990234375px" xmlns="http://www.w3.org/2000/svg" viewBox="134.65000305175784 12.780004882812499 230.69999389648436 124.439990234375" style="background: rgba(0, 0, 0, 0) none repeat scroll 0% 0%;" preserveAspectRatio="xMidYMid"><defs><filter id="editing-extrusion" x="-100%" y="-100%" width="300%" height="300%"><feFlood result="color1" flood-color="#444"></feFlood><feConvolveMatrix order="8,8" divisor="1" kernelMatrix="1 0 0 0 0 0 0 0 0 1 0 0 0 0 0 0 0 0 1 0 0 0 0 0 0 0 0 1 0 0 0 0 0 0 0 0 1 0 0 0 0 0 0 0 0 1 0 0 0 0 0 0 0 0 1 0 0 0 0 0 0 0 0 1" in="SourceAlpha" result="extrude"></feConvolveMatrix><feComposite in="color1" in2="extrude" result="comp-extrude" operator="in"></feComposite><feOffset dx="4" dy="4" in="comp-extrude" result="offset-extrude"></feOffset><feMerge><feMergeNode in="offset-extrude"></feMergeNode><feMergeNode in="SourceGraphic"></feMergeNode></feMerge></filter></defs><g filter="url(#editing-extrusion)"><g transform="translate(173.736328125, 104.119140625)"><path d="M26.05-29.57L26.05-29.57L26.05-29.57Q27.01-31.49 27.01-33.28L27.01-33.28L27.01-33.28Q27.01-35.07 26.82-36.06L26.82-36.06L26.82-36.06Q26.62-37.06 26.18-37.82L26.18-37.82L26.18-37.82Q25.22-39.49 23.30-39.49L23.30-39.49L23.30-39.49Q20.93-39.49 19.01-37.76L19.01-37.76L19.01-37.76Q16.96-35.97 16.96-33.15L16.96-33.15L16.96-33.15Q16.96-31.36 18.21-29.98L18.21-29.98L18.21-29.98Q19.46-28.61 21.38-27.33L21.38-27.33L21.38-27.33Q23.30-26.05 25.47-24.77L25.47-24.77L25.47-24.77Q27.65-23.49 29.57-21.95L29.57-21.95L29.57-21.95Q33.98-18.43 33.98-13.70L33.98-13.70L33.98-13.70Q33.98-10.50 32.29-7.78L32.29-7.78L32.29-7.78Q30.59-5.06 27.78-3.07L27.78-3.07L27.78-3.07Q21.63 1.28 13.50 1.28L13.50 1.28L13.50 1.28Q6.91 1.28 3.52-0.86L3.52-0.86L3.52-0.86Q0.13-3.01 0.13-6.27L0.13-6.27L0.13-6.27Q0.13-12.10 4.67-13.57L4.67-13.57L4.67-13.57Q5.95-14.02 7.90-14.02L7.90-14.02L7.90-14.02Q9.86-14.02 12.10-13.18L12.10-13.18L12.10-13.18Q11.07-10.56 11.07-8.19L11.07-8.19L11.07-8.19Q11.07-3.07 14.72-3.07L14.72-3.07L14.72-3.07Q17.09-3.07 19.04-4.80L19.04-4.80L19.04-4.80Q20.99-6.53 20.99-8.48L20.99-8.48L20.99-8.48Q20.99-10.43 19.74-11.84L19.74-11.84L19.74-11.84Q18.50-13.25 16.64-14.37L16.64-14.37L16.64-14.37Q14.78-15.49 12.64-16.58L12.64-16.58L12.64-16.58Q10.50-17.66 8.64-19.20L8.64-19.20L8.64-19.20Q4.29-22.72 4.29-28.35L4.29-28.35L4.29-28.35Q4.29-32 6.08-34.85L6.08-34.85L6.08-34.85Q7.87-37.70 10.75-39.62L10.75-39.62L10.75-39.62Q16.51-43.52 23.58-43.52L23.58-43.52L23.58-43.52Q30.66-43.52 34.08-41.41L34.08-41.41L34.08-41.41Q37.50-39.30 37.50-35.71L37.50-35.71L37.50-35.71Q37.50-32.58 35.07-30.59L35.07-30.59L35.07-30.59Q32.96-28.93 30.40-28.93L30.40-28.93L30.40-28.93Q27.84-28.93 26.05-29.57ZM54.21-3.52L54.21-3.52L54.21-3.52Q52.22 1.28 45.89 1.28L45.89 1.28L45.89 1.28Q42.62 1.28 40.58-0.96L40.58-0.96L40.58-0.96Q38.85-2.94 38.85-4.93L38.85-4.93L38.85-4.93Q38.85-10.11 41.22-20.22L41.22-20.22L43.58-32.64L56.58-33.92L52.67-13.70L52.67-13.70Q51.58-8.96 51.58-7.30L51.58-7.30L51.58-7.30Q51.58-3.65 54.21-3.52ZM44.74-41.54L44.74-41.54L44.74-41.54Q44.74-44.03 46.82-45.38L46.82-45.38L46.82-45.38Q48.90-46.72 51.90-46.72L51.90-46.72L51.90-46.72Q54.91-46.72 56.74-45.38L56.74-45.38L56.74-45.38Q58.56-44.03 58.56-41.54L58.56-41.54L58.56-41.54Q58.56-39.04 56.54-37.76L56.54-37.76L56.54-37.76Q54.53-36.48 51.52-36.48L51.52-36.48L51.52-36.48Q48.51-36.48 46.62-37.76L46.62-37.76L46.62-37.76Q44.74-39.04 44.74-41.54ZM79.68-17.98L79.68-17.98L79.68-17.98Q81.98-22.08 81.98-26.24L81.98-26.24L81.98-26.24Q81.98-28.99 80-28.99L80-28.99L80-28.99Q78.46-28.99 76.86-26.37L76.86-26.37L76.86-26.37Q75.20-23.74 74.69-20.35L74.69-20.35L71.36 0L58.11 1.28L64.64-32.64L75.20-33.92L74.05-27.46L74.05-27.46Q77.18-33.92 84.22-33.92L84.22-33.92L84.22-33.92Q87.94-33.92 89.95-32L89.95-32L89.95-32Q91.97-30.08 91.97-26.14L91.97-26.14L91.97-26.14Q91.97-22.21 89.38-19.71L89.38-19.71L89.38-19.71Q86.78-17.22 82.37-17.22L82.37-17.22L82.37-17.22Q80.45-17.22 79.68-17.98ZM95.78-1.92L95.78-1.92L95.78-1.92Q94.27-3.58 93.60-6.21L93.60-6.21L93.60-6.21Q92.93-8.83 92.93-13.12L92.93-13.12L92.93-13.12Q92.93-17.41 94.40-21.31L94.40-21.31L94.40-21.31Q95.87-25.22 98.56-28.03L98.56-28.03L98.56-28.03Q104.06-33.92 113.15-33.92L113.15-33.92L113.15-33.92Q116.42-33.92 118.78-32.83L118.78-32.83L129.73-33.92L124.99-8.96L124.99-8.96Q124.80-8.19 124.80-6.78L124.80-6.78L124.80-6.78Q124.80-5.38 125.66-4.48L125.66-4.48L125.66-4.48Q126.53-3.58 127.81-3.46L127.81-3.46L127.81-3.46Q127.17-1.28 124.83 0L124.83 0L124.83 0Q122.50 1.28 119.87 1.28L119.87 1.28L119.87 1.28Q117.25 1.28 115.49 0.29L115.49 0.29L115.49 0.29Q113.73-0.70 113.22-2.37L113.22-2.37L113.22-2.37Q112.19-0.77 110.02 0.26L110.02 0.26L110.02 0.26Q107.84 1.28 104.93 1.28L104.93 1.28L104.93 1.28Q102.02 1.28 99.65 0.51L99.65 0.51L99.65 0.51Q97.28-0.26 95.78-1.92ZM109.28-27.90L109.28-27.90L109.28-27.90Q108.54-26.75 107.90-24.80L107.90-24.80L107.90-24.80Q107.26-22.85 106.21-17.63L106.21-17.63L106.21-17.63Q105.15-12.42 105.15-8.70L105.15-8.70L105.15-8.70Q105.15-4.99 105.73-3.90L105.73-3.90L105.73-3.90Q106.30-2.82 107.33-2.82L107.33-2.82L107.33-2.82Q109.38-2.82 110.88-4.77L110.88-4.77L110.88-4.77Q112.38-6.72 112.96-10.18L112.96-10.18L116.35-28.93L116.35-28.93Q115.01-30.08 113.44-30.08L113.44-30.08L113.44-30.08Q111.87-30.08 110.94-29.57L110.94-29.57L110.94-29.57Q110.02-29.06 109.28-27.90ZM124.29 7.62L124.29 7.62L124.29 7.62Q127.62 7.36 130.05 3.20L130.05 3.20L130.05 3.20Q131.90 0 133.12-5.89L133.12-5.89L138.30-32.64L151.17-33.92L145.73-5.89L145.73-5.89Q143.62 4.80 140.35 8.32L140.35 8.32L140.35 8.32Q138.62 10.24 136.38 10.88L136.38 10.88L136.38 10.88Q134.14 11.52 131.58 11.52L131.58 11.52L131.58 11.52Q126.21 11.52 124.29 7.62ZM139.33-41.54L139.33-41.54L139.33-41.54Q139.33-44.03 141.41-45.38L141.41-45.38L141.41-45.38Q143.49-46.72 146.50-46.72L146.50-46.72L146.50-46.72Q149.50-46.72 151.33-45.38L151.33-45.38L151.33-45.38Q153.15-44.03 153.15-41.54L153.15-41.54L153.15-41.54Q153.15-39.04 151.14-37.76L151.14-37.76L151.14-37.76Q149.12-36.48 146.11-36.48L146.11-36.48L146.11-36.48Q143.10-36.48 141.22-37.76L141.22-37.76L141.22-37.76Q139.33-39.04 139.33-41.54Z" fill="#ccc"></path></g></g><style>text {
  font-size: 64px;
  font-family: Arial Black;
  dominant-baseline: central;
  text-anchor: middle;
}</style></svg>