<svg xmlns="http://www.w3.org/2000/svg" viewBox="0 0 120 120"><defs><style>.cls-1{fill:#343369;}.cls-2{fill:#23bbe6;}.cls-3{fill:none;}</style></defs><title>Asset 1</title><g id="Layer_2" data-name="Layer 2"><g id="Layer_1-2" data-name="Layer 1"><g id="CXswmL.tif"><path class="cls-1" d="M0,74C0,54.4,12.22,38.83,30.71,34.84c13.11-2.83,24.74.62,34.78,9.51.84.74,1,1.19.06,2-1.95,1.82-1.87,1.85-3.95.1a34.51,34.51,0,0,0-20.88-8.28c-17.28-1-33,11.52-35.79,28.38C1.65,86.8,13,103.43,31.14,107.76c11.69,2.79,22.26-.08,31.3-8.08,1-.9,1.49-1,2.38.06,1.63,1.88,1.75,1.89-.28,3.58-11.37,9.45-24.26,12.18-38.2,7.44S4.05,96.11.82,81.79A39.64,39.64,0,0,1,0,74Z"/><path class="cls-1" d="M71.15,63c1.44-2.11,2.5-4.29,4.55-5.78a9.56,9.56,0,0,1,8.17-1.63,1.05,1.05,0,0,1,1,1.26c0,1.16,0,2.32,0,3.5-5.92-2.06-9.69-.34-12.07,5.45A22,22,0,0,0,71.16,74c0,5.72,0,11.44,0,17.15,0,1.18-.33,1.49-1.48,1.47-3-.05-3,0-3-3.05,0-10.65,0-21.31,0-32,0-1.4.36-1.77,1.74-1.71,2.77.11,2.77,0,2.77,2.79Z"/><path class="cls-1" d="M42.71,9A7.92,7.92,0,0,0,38,8.55a2.8,2.8,0,0,0-2.25,2,2.57,2.57,0,0,0,1,3c1.31.92,2.74,1.66,4.1,2.52a5,5,0,0,1,2.57,3.11,4.15,4.15,0,0,1-3.21,5,10.3,10.3,0,0,1-4.78-.07,8.14,8.14,0,0,1-1.64-.68s.25-.84.44-1.38a8.11,8.11,0,0,0,5.07,1,2.75,2.75,0,0,0,2.53-2,2.83,2.83,0,0,0-1.3-3.3c-1.16-.76-2.39-1.39-3.56-2.11-2.53-1.55-3.42-3.38-2.69-5.45S37.6,6.73,40.05,7a13.32,13.32,0,0,1,3.07.82S42.86,8.48,42.71,9Z"/><path class="cls-1" d="M120,73.42a39.18,39.18,0,0,0-.53-6.11c-1-4.57-2.89-8.54-7.31-10.68A15.61,15.61,0,0,0,91.63,63.2c-4,7.16-3.85,14.66-.57,22A13.39,13.39,0,0,0,100.65,93,22,22,0,0,0,114,91.81c3.69-1.44,3.9-1.9,3.6-5.9,0,0,0-.1-.12-.35l-1.35.91a17.27,17.27,0,0,1-12.29,3c-6.1-.87-10-5.77-10.35-12.6-.08-1.41.18-1.88,1.73-1.86,7.72.09,15.44,0,23.15.07C119.69,75.11,120.06,74.72,120,73.42Zm-5.92-2.34c-3.22,0-6.43,0-9.64,0s-6.32,0-9.48,0c-.55,0-1.21.22-1.17-.85.16-5,4.75-10.29,9.59-11,8.48-1.18,11.55,5,11.84,10.9C115.26,71.1,114.72,71.08,114.07,71.08Z"/><path class="cls-1" d="M57.45,11.44c0-2.13-1.48-3.36-3.85-4a32.42,32.42,0,0,0-6-.15V24.21H49l.17-6.61s3.68.24,5.32-.69A5.76,5.76,0,0,0,57.45,11.44ZM55.54,13.8c-.46,1.84-2.66,2.62-6.33,2.5V8.76h1.95C55,8.79,56.34,10.58,55.54,13.8Z"/><ellipse class="cls-2" cx="38.62" cy="73.64" rx="12.49" ry="13.73"/></g><path class="cls-1" d="M25.07,7.24H23.52L17,24.26h1.7l1.83-5h7.05l2.15,5.11h1.75Zm-3.9,10.51,3.06-8.27,3,8.27Z"/><circle class="cls-1" cx="59.62" cy="23.14" r="1.07"/><polygon class="cls-1" points="64.78 7.26 64.78 24.21 66.35 24.25 66.51 9.86 76.55 24.39 78.02 24.39 78.02 7.25 76.33 7.26 76.5 21.64 66.43 7.25 64.78 7.26"/><polygon class="cls-1" points="90.95 7.25 90.95 8.68 84.34 8.68 84.34 14.83 90.49 14.83 90.49 16.37 84.34 16.37 84.34 22.79 91.39 22.79 91.39 24.39 82.73 24.39 82.73 7.27 90.95 7.25"/><polygon class="cls-1" points="93.5 7.25 104.83 7.27 104.83 8.62 100.17 8.62 100.17 24.39 98.21 24.39 98.21 8.66 93.5 8.66 93.5 7.25"/><rect class="cls-3" width="120" height="120"/></g></g></svg>